<svg width="48" height="48" fill="none" xmlns="http://www.w3.org/2000/svg"><path fill="#fff" stroke="#1b1b1b" stroke-width="2" d="M1 1h46v46H1z"/><path d="M37.25 19.132l1.532-.772s.145-.344.593-.39c-.605-.142-1.332.136-1.332.136s.865-1.326 1.498-1.126c.09-.32-.718-1.067-.8-.837-.082.23.12.067.12.067s.566-.586 1.116-.732c.135-.419.663-1.263.794-1.433-2.919.296-4.583 5.668-4.964 8.544l.398-.487s.744-1.52.697-1.989c-.048-.468.38.435 1.331-.135.226-.135.43-.466.62-.905-.667.437-1.603.059-1.603.059z" fill="#ffe660"/><path d="M37.813 19.154s1.147-1.02 1.88-.738c.117-.28.23-.58.34-.886-.702-.132-1.585.14-1.585.14s1.07-.952 1.803-.762c.11-.322.217-.64.321-.936a4.551 4.551 0 0 0-1.102.176s.67-.597 1.314-.751c.164-.422.322-.756.478-.929-3.404.345-4.963 5.233-5.455 8.121l.398-.487.918-2.011s.436.429 1.554-.158c.265-.139.51-.474.738-.916-.704-.14-1.602.137-1.602.137zM7.53 32.08a5.38 5.38 0 0 1-1.31-.16c-.427-.113-.767-.253-1.02-.42l.52-1.12c.24.153.53.28.87.38.34.093.673.14 1 .14.66 0 .99-.163.99-.49 0-.153-.09-.263-.27-.33-.18-.067-.457-.123-.83-.17a8.007 8.007 0 0 1-1.09-.23 1.726 1.726 0 0 1-.75-.46c-.207-.22-.31-.533-.31-.94 0-.34.097-.64.29-.9.2-.267.487-.473.86-.62.38-.147.827-.22 1.34-.22.38 0 .757.043 1.13.13.38.08.693.193.94.34l-.52 1.11c-.473-.267-.99-.4-1.55-.4-.333 0-.583.047-.75.14-.167.093-.25.213-.25.36 0 .167.09.283.27.35.18.067.467.13.86.19.44.073.8.153 1.08.24.28.08.523.23.73.45.207.22.31.527.31.92 0 .333-.1.63-.3.89-.2.26-.493.463-.88.61-.38.14-.833.21-1.36.21zm6.972-.34c-.153.113-.343.2-.57.26-.22.053-.453.08-.7.08-.64 0-1.136-.163-1.49-.49-.346-.327-.52-.807-.52-1.44v-2.21h-.83v-1.2h.83v-1.31h1.56v1.31h1.34v1.2h-1.34v2.19c0 .227.057.403.17.53.12.12.287.18.5.18.247 0 .457-.067.63-.2l.42 1.1zm3.27.34a3.294 3.294 0 0 1-1.53-.35 2.682 2.682 0 0 1-1.05-.99 2.714 2.714 0 0 1-.38-1.43c0-.533.127-1.01.38-1.43.253-.42.604-.747 1.05-.98.453-.24.963-.36 1.53-.36.567 0 1.074.12 1.52.36.447.233.797.56 1.05.98.254.42.38.897.38 1.43 0 .533-.127 1.01-.38 1.43-.253.42-.603.75-1.05.99-.447.233-.953.35-1.52.35zm0-1.28c.4 0 .727-.133.98-.4.26-.273.39-.637.39-1.09 0-.453-.13-.813-.39-1.08-.253-.273-.58-.41-.98-.41s-.73.137-.99.41c-.26.267-.39.627-.39 1.08 0 .453.13.817.39 1.09.26.267.59.4.99.4zm5.483-3.47a1.74 1.74 0 0 1 .75-.59c.32-.133.687-.2 1.1-.2v1.44a5.656 5.656 0 0 0-.35-.02c-.447 0-.797.127-1.05.38-.253.247-.38.62-.38 1.12V32h-1.56v-5.38h1.49v.71zm2.777-.71h1.56V32h-1.56v-5.38zm.78-.75c-.286 0-.52-.083-.7-.25a.81.81 0 0 1-.27-.62.81.81 0 0 1 .27-.62c.18-.167.414-.25.7-.25.287 0 .52.08.7.24.18.16.27.36.27.6 0 .26-.09.477-.27.65-.18.167-.413.25-.7.25zm7.498 3.46c0 .02-.01.16-.03.42h-4.07c.074.333.247.597.52.79.274.193.614.29 1.02.29.28 0 .527-.04.74-.12.22-.087.424-.22.61-.4l.83.9c-.506.58-1.246.87-2.22.87-.606 0-1.143-.117-1.61-.35a2.635 2.635 0 0 1-1.08-.99 2.714 2.714 0 0 1-.38-1.43c0-.527.124-1 .37-1.42a2.625 2.625 0 0 1 1.03-.99c.44-.24.93-.36 1.47-.36a3 3 0 0 1 1.43.34c.427.227.76.553 1 .98.247.42.37.91.37 1.47zm-2.79-1.61c-.353 0-.65.1-.89.3-.24.2-.386.473-.44.82h2.65a1.27 1.27 0 0 0-.44-.81 1.302 1.302 0 0 0-.88-.31zm5.639 4.36a5.38 5.38 0 0 1-1.31-.16c-.427-.113-.767-.253-1.02-.42l.52-1.12c.24.153.53.28.87.38.34.093.673.14 1 .14.66 0 .99-.163.99-.49 0-.153-.09-.263-.27-.33-.18-.067-.457-.123-.83-.17a8.008 8.008 0 0 1-1.09-.23 1.726 1.726 0 0 1-.75-.46c-.207-.22-.31-.533-.31-.94 0-.34.097-.64.29-.9.2-.267.487-.473.86-.62.38-.147.827-.22 1.34-.22.38 0 .757.043 1.13.13.38.08.693.193.94.34l-.52 1.11c-.473-.267-.99-.4-1.55-.4-.333 0-.583.047-.75.14-.167.093-.25.213-.25.36 0 .167.09.283.27.35.18.067.467.13.86.19.44.073.8.153 1.08.24.28.08.523.23.73.45.207.22.31.527.31.92 0 .333-.1.63-.3.89-.2.26-.493.463-.88.61-.38.14-.833.21-1.36.21zM7.53 23.08a5.38 5.38 0 0 1-1.31-.16c-.427-.113-.767-.253-1.02-.42l.52-1.12c.24.153.53.28.87.38.34.093.673.14 1 .14.66 0 .99-.163.99-.49 0-.153-.09-.263-.27-.33-.18-.067-.457-.123-.83-.17a8.007 8.007 0 0 1-1.09-.23 1.726 1.726 0 0 1-.75-.46c-.207-.22-.31-.533-.31-.94 0-.34.097-.64.29-.9.2-.267.487-.473.86-.62.38-.147.827-.22 1.34-.22.38 0 .757.043 1.13.13.38.08.693.193.94.34l-.52 1.11c-.473-.267-.99-.4-1.55-.4-.333 0-.583.047-.75.14-.167.093-.25.213-.25.36 0 .167.09.283.27.35.18.067.467.13.86.19.44.073.8.153 1.08.24.28.08.523.23.73.45.207.22.31.527.31.92 0 .333-.1.63-.3.89-.2.26-.493.463-.88.61-.38.14-.833.21-1.36.21zm6.772-5.54c.667 0 1.204.2 1.61.6.414.4.62.993.62 1.78V23h-1.56v-2.84c0-.427-.093-.743-.28-.95-.186-.213-.456-.32-.81-.32-.393 0-.706.123-.94.37-.233.24-.35.6-.35 1.08V23h-1.56v-7.42h1.56v2.6c.207-.207.457-.363.75-.47.294-.113.614-.17.96-.17zm6.263 5.54a3.294 3.294 0 0 1-1.53-.35 2.682 2.682 0 0 1-1.05-.99 2.713 2.713 0 0 1-.38-1.43c0-.533.127-1.01.38-1.43.253-.42.604-.747 1.05-.98.453-.24.963-.36 1.53-.36.567 0 1.073.12 1.52.36.447.233.797.56 1.05.98.253.42.38.897.38 1.43 0 .533-.127 1.01-.38 1.43-.253.42-.603.75-1.05.99-.447.233-.953.35-1.52.35zm0-1.28c.4 0 .727-.133.98-.4.26-.273.39-.637.39-1.09 0-.453-.13-.813-.39-1.08-.253-.273-.58-.41-.98-.41s-.73.137-.99.41c-.26.267-.39.627-.39 1.08 0 .453.13.817.39 1.09.26.267.59.4.99.4zm5.483-3.47a1.74 1.74 0 0 1 .75-.59c.32-.133.687-.2 1.1-.2v1.44a5.656 5.656 0 0 0-.35-.02c-.447 0-.797.127-1.05.38-.253.247-.38.62-.38 1.12V23h-1.56v-5.38h1.49v.71zm6.433 4.41c-.153.113-.343.2-.57.26-.22.053-.453.08-.7.08-.64 0-1.137-.163-1.49-.49-.347-.327-.52-.807-.52-1.44v-2.21h-.83v-1.2h.83v-1.31h1.56v1.31h1.34v1.2h-1.34v2.19c0 .227.057.403.17.53.12.12.287.18.5.18.247 0 .457-.067.63-.2l.42 1.1z" fill="#1b1b1b"/></svg>
