<?xml version="1.0" encoding="UTF-8"?>
<svg width="120px" height="120px" viewBox="0 0 120 120" version="1.1" xmlns="http://www.w3.org/2000/svg" xmlns:xlink="http://www.w3.org/1999/xlink">
    <title>Group</title>
    <desc>Created with Sketch.</desc>
    <defs>
        <linearGradient x1="50%" y1="0%" x2="50%" y2="100%" id="linearGradient-1">
            <stop stop-color="#AB8DC0" offset="0%"></stop>
            <stop stop-color="#D79696" offset="100%"></stop>
        </linearGradient>
    </defs>
    <g id="Page-1" stroke="none" stroke-width="1" fill="none" fill-rule="evenodd">
        <g id="Group">
            <rect id="Rectangle" fill="url(#linearGradient-1)" x="0" y="0" width="120" height="120"></rect>
            <g id="avatar-(2)" transform="translate(30.000000, 24.000000)" fill="#000000" fill-rule="nonzero">
                <path d="M29.7626318,39 C29.8345615,39 29.9064913,39 29.992807,39 C30.0215789,39 30.0503508,39 30.0791227,39 C30.1222806,39 30.1798244,39 30.2229823,39 C34.4380668,38.9250576 37.8475379,37.3812452 40.3650798,34.4285165 C45.9036721,27.9235204 44.9829711,16.7720984 44.8822694,15.707917 C44.5226205,7.71906226 40.8973601,3.89700231 37.9050817,2.11337433 C35.6752588,0.779400461 33.0714012,0.0599538816 30.1654385,0 L30.0647368,0 C30.0503508,0 30.0215789,0 30.007193,0 L29.9208773,0 C28.3240364,0 25.1878984,0.269792467 22.181234,2.05342045 C19.1601837,3.83704842 15.4773795,7.65910838 15.1177306,15.707917 C15.0170289,16.7720984 14.0963279,27.9235204 19.6349202,34.4285165 C22.1380762,37.3812452 25.5475472,38.9250576 29.7626318,39 Z M18.9587803,16.0826287 C18.9587803,16.0376633 18.9731663,15.9926979 18.9731663,15.962721 C19.4479028,5.2159877 26.7703533,4.06187548 29.9064913,4.06187548 L29.9640351,4.06187548 C29.992807,4.06187548 30.0359649,4.06187548 30.0791227,4.06187548 C33.9633303,4.1518063 40.5664832,5.80053805 41.0124478,15.962721 C41.0124478,16.0076864 41.0124478,16.0526518 41.0268337,16.0826287 C41.0412197,16.187548 42.0482364,26.3797079 37.4735031,31.7455803 C35.6608729,33.8739431 33.2440326,34.923136 30.0647368,34.953113 C30.0359649,34.953113 30.0215789,34.953113 29.992807,34.953113 L29.992807,34.953113 C29.9640351,34.953113 29.9496492,34.953113 29.9208773,34.953113 C26.7559674,34.923136 24.3247412,33.8739431 22.5264969,31.7455803 C17.9661495,26.4096849 18.9443944,16.1725596 18.9587803,16.0826287 Z" id="Shape"></path>
                <path d="M59.9959092,56.9044884 C59.9959092,56.8892865 59.9959092,56.8740846 59.9959092,56.8588826 C59.9959092,56.7372672 59.9813019,56.6156518 59.9813019,56.4788345 C59.8936585,53.4688533 59.7037644,46.430362 53.3642223,44.1804771 C53.3204006,44.1652752 53.2619716,44.1500733 53.2181499,44.1348714 C46.6302848,42.38665 41.1525699,38.4341495 41.0941409,38.3885437 C40.2030993,37.7348609 38.9760912,37.9628898 38.3479799,38.8902072 C37.7198686,39.8175246 37.9389772,41.0944863 38.8300188,41.7481691 C39.0783419,41.9305922 44.8920233,46.1415255 52.1664287,48.0873719 C55.5699155,49.3491317 55.9497037,53.134411 56.0519544,56.6004499 C56.0519544,56.7372672 56.0519544,56.8588826 56.0665617,56.980498 C56.0811689,58.3486713 55.9935255,60.4617389 55.7598096,61.6778929 C53.3934368,63.07647 44.1178396,67.9106822 30.007246,67.9106822 C15.9550814,67.9106822 6.62105518,63.0612681 4.24007511,61.662691 C4.00635927,60.446537 3.90410859,58.3334694 3.93332307,56.9652961 C3.93332307,56.8436807 3.94793031,56.7220653 3.94793031,56.585248 C4.05018099,53.1192091 4.42996923,49.3339297 7.83345608,48.0721699 C15.1078615,46.1263235 20.9215429,41.9001884 21.169866,41.7329672 C22.0609076,41.0792844 22.2800162,39.8023227 21.6519049,38.8750053 C21.0237936,37.9476879 19.7967854,37.719659 18.9057438,38.3733418 C18.8473148,38.4189475 13.3988144,42.3714481 6.78173482,44.1196694 C6.72330586,44.1348714 6.67948414,44.1500733 6.63566242,44.1652752 C0.296120382,46.430362 0.106226265,53.4688533 0.0185828268,56.4636326 C0.0185828268,56.6004499 0.0185828268,56.7220653 0.0039755871,56.8436807 C0.0039755871,56.8588826 0.0039755871,56.8740846 0.0039755871,56.8892865 C-0.0106316526,57.6797866 -0.0252388924,61.7387006 0.748944813,63.7757585 C0.895017211,64.1710086 1.15794753,64.5054509 1.50852128,64.7334798 C1.94673847,65.0375183 12.4493438,72 30.0218532,72 C47.5943626,72 58.096968,65.0223164 58.5351852,64.7334798 C58.8711517,64.5054509 59.1486893,64.1710086 59.2947616,63.7757585 C60.0251236,61.7539025 60.0105164,57.6949885 59.9959092,56.9044884 Z" id="Path"></path>
            </g>
        </g>
    </g>
</svg>
