<svg width="12" height="12" fill="none" xmlns="http://www.w3.org/2000/svg"><path d="M3.507 7.187l2.537-1.029s.252-.436.986-.51c-.984-.155-2.185.22-2.185.22s1.469-1.695 2.496-1.47c.16-.404-1.133-1.31-1.276-1.018-.144.292.192.08.192.08s.95-.758 1.856-.961C8.351 1.968 9.248.889 9.47.67c-4.788.486-7.724 7.287-8.46 10.91l.67-.627S2.956 9.017 2.896 8.43c-.059-.585.606.53 2.186-.221.374-.178.723-.602 1.051-1.16-1.11.575-2.627.137-2.627.137z" fill="#ffe660"/><path d="M4.428 7.192s1.917-1.325 3.105-.999c.204-.355.401-.736.593-1.124-1.144-.138-2.602.238-2.602.238s1.789-1.235 2.981-1.026c.194-.409.382-.812.564-1.187-.93.036-1.81.264-1.81.264s1.12-.774 2.178-.994c.286-.535.558-.96.82-1.183C4.67 1.748 1.927 7.94 1.01 11.58l.67-.626 1.583-2.558s.696.52 2.549-.259c.439-.185.853-.615 1.244-1.179-1.147-.147-2.627.235-2.627.235z" fill="#1b1b1b"/></svg>
