<svg xmlns="http://www.w3.org/2000/svg" width="533.333" height="533.333"><path fill="#222" d="M200 305.556S306.221 241.826 366.024 267c12.396-18.89 24.608-39.238 36.564-60.011-58.504-14.333-135.922-1.434-135.922-1.434s99.069-59.438 159.722-40.833c12.161-21.931 23.987-43.563 35.394-63.7-48.32-3.265-95.115 4.533-95.115 4.533s62.057-37.233 118.01-43.541C502.279 33.442 518.619 11.035 533.333 0 241.146 0 66.667 333.333 0 533.333h33.333l100-166.666s33.333 33.333 133.333 0c23.684-7.896 47.369-29.819 70.61-59.341-58.652-14.872-137.276-1.77-137.276-1.77z"/></svg>
