<svg width="20" height="17" viewBox="0 0 20 17" fill="none" 
  xmlns="http://www.w3.org/2000/svg">
  <path d="M20 1.92213C19.2639 2.2483 18.4741 2.46951 17.6442 2.56827C18.4915 2.06085 19.1402 1.25602 19.4476 0.299935C18.6527 0.769838 17.7754 1.11105 16.8406 1.29602C16.092 0.497419 15.0271 0 13.8461 0C11.5803 0 9.74312 1.83716 9.74312 4.10174C9.74312 4.42292 9.77936 4.73661 9.84936 5.03658C6.44001 4.86533 3.41684 3.2319 1.39347 0.749838C1.03977 1.35474 0.838563 2.05958 0.838563 2.81197C0.838563 4.23546 1.56343 5.49148 2.66324 6.22632C1.99085 6.20383 1.35847 6.01887 0.804838 5.71142V5.76266C0.804838 7.74978 2.21958 9.40822 4.09546 9.78567C3.75177 9.87815 3.38935 9.9294 3.01442 9.9294C2.74948 9.9294 2.49327 9.90315 2.24206 9.85315C2.76445 11.4841 4.27919 12.6701 6.07387 12.7026C4.67037 13.8024 2.90069 14.4561 0.978564 14.4561C0.647387 14.4561 0.321177 14.4361 0 14.3998C1.81592 15.5659 3.97177 16.2457 6.28883 16.2457C13.8362 16.2457 17.9617 9.9944 17.9617 4.57292L17.9479 4.04177C18.754 3.46684 19.4513 2.74448 20 1.92213Z" fill="white"/>
</svg>
