<svg width="21" height="12" viewBox="0 0 21 12" fill="none" 
  xmlns="http://www.w3.org/2000/svg">
  <path d="M20.8888 10.8371C20.867 10.7904 20.843 10.7446 20.8168 10.7001C20.4528 10.0431 19.7568 9.23713 18.7288 8.28013L18.7068 8.25813L18.6968 8.24813L18.6858 8.23613H18.6738C18.2078 7.79113 17.9128 7.49213 17.7888 7.33813C17.5628 7.04613 17.5118 6.75113 17.6358 6.45113C17.7228 6.22513 18.0508 5.74713 18.6198 5.01713C18.9188 4.63013 19.1548 4.32013 19.3298 4.08713C20.5908 2.40713 21.1378 1.33413 20.9698 0.867127L20.9048 0.757127C20.8618 0.692127 20.7488 0.631127 20.5668 0.577127C20.3838 0.522127 20.1508 0.513127 19.8668 0.549127L16.7168 0.571127C16.645 0.55331 16.5696 0.555384 16.4988 0.577127L16.3568 0.610127L16.3018 0.637127L16.2588 0.670127C16.2125 0.701254 16.1719 0.740161 16.1388 0.785127C16.0929 0.843029 16.0559 0.907391 16.0288 0.976127C15.7021 1.82604 15.311 2.64977 14.8588 3.44013C14.5888 3.89313 14.3418 4.28513 14.1148 4.61813C13.9459 4.87759 13.7559 5.12274 13.5468 5.35113C13.4173 5.4868 13.2783 5.61312 13.1308 5.72913C13.0078 5.82413 12.9128 5.86413 12.8468 5.84913C12.7847 5.83553 12.7227 5.8212 12.6608 5.80613C12.5573 5.73881 12.4726 5.64623 12.4148 5.53713C12.3469 5.40383 12.3045 5.25901 12.2898 5.11013C12.2698 4.96316 12.2568 4.81533 12.2508 4.66713C12.2478 4.49177 12.2498 4.31637 12.2568 4.14113C12.2638 3.91513 12.2668 3.76113 12.2668 3.68113C12.2668 3.40413 12.2728 3.10213 12.2838 2.77813L12.3108 2.00613C12.3188 1.81613 12.3218 1.61513 12.3218 1.40313C12.3258 1.23628 12.3131 1.06944 12.2838 0.905127C12.2583 0.784639 12.2197 0.667284 12.1688 0.555127C12.1221 0.447075 12.0441 0.355481 11.9448 0.292127C11.8313 0.223899 11.7078 0.173955 11.5788 0.144127C11.1928 0.0561275 10.7008 0.0091274 10.1028 0.0021274C8.74682 -0.0128726 7.87582 0.0751275 7.48982 0.264127C7.33236 0.347665 7.1914 0.459146 7.07382 0.593127C6.94382 0.753127 6.92382 0.841127 7.01982 0.856127C7.45682 0.921127 7.76682 1.07813 7.94882 1.32613L8.01482 1.45813C8.06482 1.55313 8.11682 1.72113 8.16782 1.96213C8.21782 2.20213 8.25182 2.46913 8.26582 2.76113C8.30182 3.29413 8.30182 3.75113 8.26582 4.13013C8.22982 4.51013 8.19582 4.80513 8.16182 5.01713C8.13911 5.19523 8.08955 5.36887 8.01482 5.53213C7.97592 5.61483 7.93183 5.69499 7.88282 5.77213C7.86882 5.79399 7.85043 5.81272 7.82882 5.82713C7.73441 5.86362 7.63404 5.88227 7.53282 5.88213C7.43082 5.88213 7.30682 5.83113 7.16182 5.72913C6.99435 5.60689 6.84195 5.46524 6.70782 5.30713C6.51105 5.07196 6.33379 4.82113 6.17782 4.55713C5.95494 4.18774 5.75036 3.80761 5.56482 3.41813L5.38982 3.10013C5.28082 2.89613 5.13182 2.59813 4.94182 2.20813C4.75182 1.81813 4.58482 1.43913 4.43882 1.07413C4.38976 0.933187 4.29823 0.810913 4.17682 0.724127L4.12182 0.691127C4.06787 0.652503 4.00902 0.621229 3.94682 0.598127C3.86609 0.565099 3.78189 0.541282 3.69582 0.527127L0.699823 0.549127C0.393824 0.549127 0.185824 0.619127 0.0768235 0.757127L0.0328235 0.823127C0.00713321 0.877709 -0.00422414 0.937938 -0.000176471 0.998127C-0.000176471 1.07813 0.0218235 1.17713 0.0658235 1.29313C0.502824 2.32313 0.978824 3.31613 1.49182 4.27213C2.00582 5.22813 2.45182 5.99913 2.83182 6.58213C3.19728 7.14756 3.58355 7.69927 3.98982 8.23613C4.38282 8.75413 4.64382 9.08613 4.77082 9.23313C4.89882 9.37913 4.99882 9.48813 5.07182 9.56113L5.34582 9.82413C5.52082 9.99913 5.77682 10.2091 6.11582 10.4541C6.45582 10.6981 6.83082 10.9391 7.24282 11.1771C7.65482 11.4141 8.13282 11.6071 8.67982 11.7571C9.22682 11.9071 9.75982 11.9671 10.2768 11.9371H11.5338C11.7888 11.9161 11.9818 11.8351 12.1138 11.6971L12.1568 11.6421C12.1942 11.579 12.2219 11.5105 12.2388 11.4391C12.2648 11.3491 12.2768 11.2481 12.2768 11.1391C12.2669 10.854 12.2907 10.5687 12.3478 10.2891C12.4028 10.0381 12.4648 9.84813 12.5348 9.72013C12.6358 9.52922 12.7795 9.36425 12.9548 9.23813C12.9833 9.22355 13.0127 9.21086 13.0428 9.20013C13.2178 9.14213 13.4228 9.19813 13.6608 9.37013C13.8978 9.54213 14.1198 9.75313 14.3278 10.0051C14.5358 10.2571 14.7848 10.5401 15.0768 10.8541C15.3678 11.1681 15.6228 11.4011 15.8418 11.5541L16.0608 11.6861C16.2068 11.7741 16.3958 11.8541 16.6288 11.9271C16.8618 12.0001 17.0658 12.0181 17.2418 11.9821L20.0408 11.9381C20.3168 11.9381 20.5328 11.8921 20.6858 11.8011C20.8388 11.7101 20.9298 11.6091 20.9588 11.5001C20.9881 11.3777 20.9898 11.2503 20.9638 11.1271C20.9492 11.028 20.9247 10.9307 20.8888 10.8371Z" fill="white"/>
</svg>
